<?xml version="1.0" encoding="utf-8"?>
<!-- Generator: Adobe Illustrator 24.1.0, SVG Export Plug-In . SVG Version: 6.00 Build 0)  -->
<svg version="1.1" id="Layer_1" xmlns="http://www.w3.org/2000/svg" xmlns:xlink="http://www.w3.org/1999/xlink" x="0px" y="0px"
	 viewBox="0 0 67 56" style="enable-background:new 0 0 67 56;" xml:space="preserve">
<style type="text/css">
	.st0{fill-rule:evenodd;clip-rule:evenodd;fill:#FB9502;}
	.st1{fill-rule:evenodd;clip-rule:evenodd;fill:#FFFFFF;}
</style>
<desc>Created with Sketch.</desc>
<g id="Page-1">
	<g id="Desktop-1" transform="translate(-129.000000, -20.000000)">
		<g id="Clip-2">
			<path id="path-1_1_" class="st0" d="M157.9,20.3c-1.1,0.2-2.2,0.4-3.3,0.7l0,0c-5.9,1.6-11.4,5-15.3,10.2l0,0
				c-2.4,3.2-4,6.7-4.9,10.3l0,0c-2,0.6-3.2,1.8-3.9,2.7l0,0c-0.9,1.2-1.4,2.7-1.5,3.9l0,0v0.1c0,0,0,0.1,0,0.1l0,0
				c0.1,1.6,1,3,2.3,3.7l0,0l0.8,2.8c-0.8,0.5-1.5,1.4-2,2.8l0,0c-0.3,0.8-0.6,2-0.4,3.3l0,0c0.3,1.9,1.2,3.5,2.7,4.6l0,0
				c1.6,1.2,3.7,1.7,6.2,1.3l0,0c0.7-0.1,1.3-0.2,1.8-0.4l0,0c1.3,1.4,2.7,2.8,4.3,4l0,0c6.2,4.6,13.8,6.3,20.9,5.3l0,0
				c6.1-0.9,11.9-3.7,16.5-8.3l0,0c1.4,0.4,2.8,0.6,4.2,0.4l0,0c1.7-0.2,3.3-0.9,4.6-2l0,0c-0.6-0.3-1.1-0.7-1.6-1.1l0,0
				c-1.2-1-2.1-2.2-2.6-3.5l0,0c1-1.9,1.8-4,2.4-6l0,0c1.3-0.3,2.7-0.9,3.8-2.4l0,0c1.7-2.3,1.5-5.1,1.4-5.9l0,0
				c-0.1-0.8-0.3-1.5-0.7-2.2l0,0l1.8-5.1c1.3-3.6-0.3-6-1-6.9l0,0c-1.6-1.9-4.2-2.8-7.3-2.3l0,0c-1,0.1-1.9,0.4-2.7,0.8l0,0
				c-1.6-2-3.4-3.9-5.6-5.5l0,0c-5.1-3.8-11-5.6-17-5.6l0,0C160.6,20,159.2,20.1,157.9,20.3L157.9,20.3z"/>
		</g>
	</g>
</g>
<path class="st1" d="M57,23.5l-1.1-5.2c-0.5-2.1,0.8-3.4,2.9-3.7l0,0c3-0.4,4.4,1.1,3.6,3.5l0,0l-1.9,5.3c-0.4,1.2-0.7,1.7-1.6,1.8
	l0,0c-0.2,0-0.3,0-0.5,0l0,0C57.6,25.3,57.3,24.8,57,23.5L57,23.5z"/>
<path class="st1" d="M35,30.3l0.8-10.9c0.1-2.1,0.8-2.9,2.2-3.1l0,0l0.6-0.1c1.5-0.2,3,0.2,2.8,2.3l0,0l-0.8,11.1
	c-0.1,1.5,0.2,2.1,1,2.3l0,0c0.1,0-0.3,1.4-2.8,1.8l0,0c-0.3,0-0.6,0.1-0.9,0.1l0,0C35.5,33.9,34.9,32.3,35,30.3L35,30.3z"/>
<path class="st1" d="M14.3,24.5c0-0.1,3.9-0.2,4.2,2.1l0,0c0.1,0.8-0.1,1.4-0.7,2.6l0,0l-4.2,9.1c-0.9,1.9-2.1,3.8-4.5,4.1l0,0
	c-1.3,0.2-2.3,0-3-0.5l0,0c-0.5-0.4-0.9-1-1-1.7l0,0c-0.1-0.9,0.4-1.9,0.5-1.9l0,0c0.3,0.1,0.8,0.2,1.3,0.2l0,0
	c0.8-0.1,1.4-0.5,2-1.6l0,0l0.2-0.3c-0.6-0.1-1-0.5-1.3-1.4l0,0l-1.4-5c-0.5-1.7-1.2-2.1-2-2.1l0,0c-0.1,0,0.2-2.4,3-2.7l0,0
	c2-0.3,3.4,0.8,3.9,3.7l0,0l0.4,1.9L14.3,24.5z"/>
<path class="st1" d="M55.8,29.6c-0.1-0.7,0-1.9,0.6-2.7l0,0c0.4-0.5,0.7-0.7,2.2-0.9l0,0c1.6-0.2,2.3,0.2,2.5,1.4l0,0
	c0.1,0.7,0,1.9-0.6,2.7l0,0c-0.4,0.5-0.7,0.7-2.2,0.9l0,0c-0.3,0-0.5,0.1-0.7,0.1l0,0C56.5,31.1,56,30.6,55.8,29.6L55.8,29.6z"/>
<path class="st1" d="M55.3,24.3c-0.4-2.9-2.6-5.2-6.8-4.6c-4.6,0.6-6.4,4.5-5.9,8.1c0.4,2.6,2.1,4.7,5.5,4.7c0.4,0,0.8,0,1.3-0.1
	C54,31.7,55.8,27.9,55.3,24.3z M48.9,28.3c-0.9,0.1-1.6-0.5-1.7-1.4c-0.2-1.4,0.4-3,1.8-3.2c0.1,0,0.2,0,0.2,0
	c0.8,0,1.4,0.6,1.5,1.4C50.9,26.6,50.3,28.1,48.9,28.3z"/>
<path class="st1" d="M33.3,30.8l0.6-8.2c0-0.2-0.9-0.6-2-0.4c-1.7,0.2-2.8,1-3.4,2.4c-0.9-1.3-2.5-1.8-3.9-1.6
	c-3.8,0.5-5.9,4.8-5.3,8.8c0.4,2.8,2.3,4.5,4.9,4.1c1.9-0.3,3.2-1.5,3.8-3c0.4,1.5,1.5,2.3,3.6,2c2.4-0.3,2.7-1.7,2.7-1.8
	C33.5,32.9,33.2,32.3,33.3,30.8z M27.9,29.1c-0.1,1.3-0.8,2-1.7,2.1c-0.9,0.1-1.5-0.4-1.6-1.2c-0.2-1.4,0.5-2.8,1.8-2.9
	c0.1,0,0.2,0,0.3,0c0.6,0,1,0.3,1.3,0.8L27.9,29.1z"/>
</svg>
