<?xml version="1.0" encoding="UTF-8"?>
<svg width="49px" height="41px" viewBox="0 0 49 41" version="1.1" xmlns="http://www.w3.org/2000/svg" xmlns:xlink="http://www.w3.org/1999/xlink">
    <!-- Generator: Sketch 61.1 (89650) - https://sketch.com -->
    <title>Clip 2</title>
    <desc>Created with Sketch.</desc>
    <defs>
        <path d="M21.1533932,0.203423987 C20.3365461,0.318253976 19.5257441,0.481373397 18.7266545,0.691641556 L18.7266545,0.691641556 C14.4006141,1.82929496 10.4104558,4.36125819 7.50426334,8.17954544 L7.50426334,8.17954544 C5.74022117,10.495537 4.54895432,13.0632421 3.90212626,15.7130771 L3.90212626,15.7130771 C2.47509965,16.1583285 1.58382197,16.9955988 1.06205237,17.6841985 L1.06205237,17.6841985 C0.408045736,18.5477048 0.00944550315,19.6359281 0,20.564454 L0,20.564454 L0,20.6287132 C0,20.6610329 0.00113346038,20.6933526 0.00264474088,20.7249118 L0.00264474088,20.7249118 C0.0491166164,21.8910826 0.716346959,22.910484 1.69716801,23.4371049 L1.69716801,23.4371049 L2.29827983,25.5222959 C1.73948386,25.9017671 1.20600184,26.5302902 0.845561442,27.556916 L0.845561442,27.556916 C0.648339336,28.1200392 0.441293907,28.9983745 0.579198253,29.9824143 L0.579198253,29.9824143 C0.776798179,31.3831881 1.44856236,32.5470775 2.52232716,33.3482258 L2.52232716,33.3482258 C3.71775004,34.2413902 5.25283321,34.5634464 7.0829939,34.30679 L7.0829939,34.30679 C7.55904726,34.2402495 7.99769643,34.1322636 8.40309742,33.9911977 L8.40309742,33.9911977 C9.32724545,35.0410175 10.3738072,36.0121294 11.5408936,36.8832404 L11.5408936,36.8832404 C16.0974043,40.2855541 21.618112,41.5315735 26.8614997,40.7965855 L26.8614997,40.7965855 C31.330734,40.1695834 35.5982123,38.1022634 38.892426,34.7045124 L38.892426,34.7045124 C39.8928936,35.0299908 40.9489009,35.1174441 41.9739269,34.9733363 L41.9739269,34.9733363 C43.196175,34.8026122 44.3742182,34.3037482 45.3644847,33.4889115 L45.3644847,33.4889115 C44.950016,33.2710387 44.5514158,33.0071579 44.1769961,32.6953679 L44.1769961,32.6953679 C43.3064985,31.9717868 42.666849,31.0767213 42.2640928,30.1010466 L42.2640928,30.1010466 C43.0276672,28.685824 43.6061098,27.2090039 44.0077326,25.7017652 L44.0077326,25.7017652 C44.983642,25.4785692 45.9935552,25.0420632 46.8198478,23.9568817 L46.8198478,23.9568817 C48.0961242,22.2781586 47.9238382,20.2157815 47.8410956,19.6237607 L47.8410956,19.6237607 C47.7579752,19.0370631 47.588334,18.503598 47.3351945,18.029449 L47.3351945,18.029449 L48.6435856,14.3252312 C49.5707562,11.6674113 48.455809,9.91720454 47.9336616,9.28792099 L47.9336616,9.28792099 C46.7491955,7.86395309 44.8430929,7.25482182 42.5640819,7.57421649 L42.5640819,7.57421649 C41.8284662,7.67763953 41.1578354,7.87688096 40.5586127,8.16243501 L40.5586127,8.16243501 C39.4228854,6.6654626 38.0600882,5.29967015 36.4755106,4.11714941 L36.4755106,4.11714941 C32.7562493,1.34031692 28.3965829,0 24.0686533,0 L24.0686533,0 C23.0931217,0 22.1183458,0.0684417153 21.1533932,0.203423987 L21.1533932,0.203423987 Z M41.6811163,17.2359053 L40.8623801,13.4590633 C40.5166747,11.8906073 41.4249543,10.9453512 43.0076428,10.7240563 L43.0076428,10.7240563 C45.2061781,10.4153081 46.2372492,11.4966872 45.6104456,13.2906206 L45.6104456,13.2906206 L44.2510488,17.1416078 C43.9446367,18.0203234 43.7069878,18.3731785 43.0560037,18.4648143 L43.0560037,18.4648143 C42.9347235,18.4819247 42.8247778,18.4906701 42.7254111,18.4906701 L42.7254111,18.4906701 C42.1299666,18.4906701 41.8889174,18.1651917 41.6811163,17.2359053 L41.6811163,17.2359053 Z M25.5890015,22.1751157 L26.1561095,14.2240896 C26.2652995,12.6982196 26.7239732,12.1354766 27.7799804,11.9879467 L27.7799804,11.9879467 L28.2020055,11.929391 C29.3097741,11.773496 30.3929844,12.0830046 30.2732154,13.6465176 L30.2732154,13.6465176 L29.694395,21.7773933 C29.6029625,22.9093433 29.8394779,23.3211342 30.419054,23.4884362 L30.419054,23.4884362 C30.4594807,23.5184745 30.2070969,24.5314119 28.3769362,24.7873079 L28.3769362,24.7873079 C28.1415543,24.820388 27.9239299,24.8363578 27.7225517,24.8363578 L27.7225517,24.8363578 C25.9724889,24.8363578 25.4896348,23.6397685 25.5890015,22.1751157 L25.5890015,22.1751157 Z M31.158448,20.3279499 C30.7904512,17.7138566 32.0965753,14.8834115 35.4561519,14.4123043 L35.4561519,14.4123043 C38.5512544,13.9780796 40.1328094,15.658704 40.4324208,17.7841995 L40.4324208,17.7841995 C40.7985285,20.3982928 39.49316,23.2291182 36.134339,23.6994648 L36.134339,23.6994648 C35.8022351,23.7458531 35.4878888,23.7682868 35.1905444,23.7682868 L35.1905444,23.7682868 C32.7139334,23.7679066 31.4248112,22.2260668 31.158448,20.3279499 L31.158448,20.3279499 Z M23.3398383,16.2533865 C24.1317493,16.1423588 24.8122033,16.3845664 24.798224,16.5465451 L24.798224,16.5465451 L24.3648643,22.5245487 C24.2738096,23.6572591 24.5114585,24.0679094 25.0910346,24.2355916 L25.0910346,24.2355916 C25.1307057,24.2652497 24.8790775,25.2781871 23.1369489,25.5222959 L23.1369489,25.5222959 C21.6071552,25.7363663 20.7831295,25.1055619 20.5076986,24.0420536 L20.5076986,24.0420536 C20.0894517,25.150049 19.1241213,26.0667877 17.7530121,26.259185 L17.7530121,26.259185 C15.8537103,26.5253472 14.4455747,25.3188719 14.1572979,23.2625786 L14.1572979,23.2625786 C13.7447184,20.3347941 15.2295515,17.2488332 18.0257982,16.8556735 L18.0257982,16.8556735 C19.0640479,16.7111855 20.221311,17.028679 20.8602048,18.0043537 L20.8602048,18.0043537 C21.2860081,16.9503513 22.073763,16.4313349 23.3398383,16.2533865 L23.3398383,16.2533865 Z M10.4316137,17.939334 C10.4595724,17.8811586 13.2781105,17.7705111 13.522938,19.5131133 L13.522938,19.5131133 C13.6083253,20.1237654 13.455686,20.570918 13.0412173,21.4465917 L13.0412173,21.4465917 L9.945737,28.1352485 C9.28530742,29.5607373 8.41669895,30.9086589 6.64056654,31.1580909 L6.64056654,31.1580909 C5.67372483,31.2942138 4.93773123,31.1660757 4.45752185,30.8067567 L4.45752185,30.8067567 C4.05589905,30.5071341 3.83562992,30.093442 3.75779897,29.5360222 L3.75779897,29.5360222 C3.66221048,28.8565481 4.06458892,28.1432333 4.10237093,28.1550205 L4.10237093,28.1550205 C4.29543701,28.2523598 4.71595081,28.3177597 5.08621454,28.2668086 L5.08621454,28.2668086 C5.70206134,28.1801158 6.13013154,27.9071094 6.5498897,27.0660368 L6.5498897,27.0660368 L6.66096882,26.8363768 C6.236299,26.7542467 5.90646203,26.4458788 5.73304259,25.8477742 L5.73304259,25.8477742 L4.68232482,22.2097168 C4.32604044,20.945066 3.80464867,20.6811852 3.22393914,20.6374585 L3.22393914,20.6374585 C3.13439577,20.6325155 3.39358037,18.9081645 5.41642933,18.6245117 L5.41642933,18.6245117 C6.87632629,18.4191865 7.86810412,19.2229964 8.29277395,21.3488722 L8.29277395,21.3488722 L8.56102624,22.7504064 L10.4316137,17.939334 Z M40.8344214,21.6720691 C40.766036,21.1842318 40.7985285,20.2731965 41.2383111,19.6971454 L41.2383111,19.6971454 C41.5107194,19.3385869 41.7744379,19.1769884 42.8482027,19.0264166 L42.8482027,19.0264166 C43.9907307,18.866339 44.5344139,19.1633 44.6621171,20.0690121 L44.6621171,20.0690121 C44.7312582,20.5568494 44.6976322,21.4686452 44.258983,22.0450765 L44.258983,22.0450765 C43.9858191,22.4032548 43.7217228,22.5656138 42.6490915,22.7146646 L42.6490915,22.7146646 C42.4537585,22.7420413 42.2754274,22.7564901 42.1140982,22.7564901 L42.1140982,22.7564901 C41.3316327,22.7564901 40.9405889,22.4241675 40.8344214,21.6720691 L40.8344214,21.6720691 Z M35.7988348,17.3678457 C34.7790982,17.5104326 34.3684078,18.669379 34.5127351,19.6979059 L34.5127351,19.6979059 C34.6087014,20.3777603 35.1217811,20.8389814 35.7901449,20.7446839 L35.7901449,20.7446839 C36.8106371,20.6017168 37.2217054,19.4420099 37.0766224,18.4142435 L37.0766224,18.4142435 C36.989346,17.7940855 36.5537194,17.3556783 35.9703651,17.3556783 L35.9703651,17.3556783 C35.9144477,17.3556783 35.8573969,17.3598608 35.7988348,17.3678457 L35.7988348,17.3678457 Z M19.2850727,19.8074126 C18.3344773,19.9401135 17.8436889,20.9157882 17.9910388,21.9610453 L17.9910388,21.9610453 C18.074537,22.5542068 18.5071411,22.9549711 19.1407454,22.8667573 L19.1407454,22.8667573 C19.809487,22.7724598 20.3131213,22.2751167 20.3784841,21.3416478 L20.3784841,21.3416478 L20.4563151,20.3538057 C20.2209331,20.0283273 19.9300116,19.7929638 19.4826726,19.7929638 L19.4826726,19.7929638 C19.4195767,19.7929638 19.3542138,19.7975266 19.2850727,19.8074126 L19.2850727,19.8074126 Z" id="path-1"></path>
    </defs>
    <g id="Page-1" stroke="none" stroke-width="1" fill="none" fill-rule="evenodd">
        <g id="Mobile" transform="translate(-29.000000, -20.000000)">
            <g id="15&quot;-Macbook-Pro-Copy" transform="translate(29.000000, 20.000000)">
                <mask id="mask-2" fill="white">
                    <use xlink:href="#path-1"></use>
                </mask>
                <use id="Clip-2" fill="#FFFFFF" xlink:href="#path-1"></use>
            </g>
        </g>
    </g>
</svg>